<svg id="filled_outline" height="512" viewBox="0 0 512 512" width="512" xmlns="http://www.w3.org/2000/svg" data-name="filled outline"><rect fill="#8da3b2" height="256" rx="19.701" width="360" x="128" y="24"/><path d="m468.3 24h-320.6a19.7 19.7 0 0 0 -19.7 19.7v190.3h270.3a19.7 19.7 0 0 1 19.7 19.7v26.3h50.3a19.7 19.7 0 0 0 19.7-19.7v-216.6a19.7 19.7 0 0 0 -19.7-19.7z" fill="#d1e3ee"/><path d="m468.3 24h-10a19.7 19.7 0 0 1 19.7 19.7v216.6a19.7 19.7 0 0 1 -19.7 19.7h10a19.7 19.7 0 0 0 19.7-19.7v-216.6a19.7 19.7 0 0 0 -19.7-19.7z" fill="#a9bfd1"/><path d="m160 56h296v192h-296z" fill="#8da3b2"/><path d="m160 56h104a192 192 0 0 1 192 192 0 0 0 0 1 0 0h-296a0 0 0 0 1 0 0v-192a0 0 0 0 1 0 0z" fill="#a9bfd1"/><path d="m355.716 224h-109.089a54.627 54.627 0 0 1 -38.627-16 54.627 54.627 0 0 1 -16-38.623v-34.745a54.629 54.629 0 0 1 15.565-38.187 54.628 54.628 0 0 1 39.067-16.445h2.742a54.627 54.627 0 0 1 38.61 15.983 54.742 54.742 0 0 0 38.692 16.017h70.01a27.315 27.315 0 0 1 19.314 8 27.315 27.315 0 0 1 8 19.314v16.4a68.283 68.283 0 0 1 -20 48.286 68.283 68.283 0 0 1 -48.284 20z" fill="#ffc5c5"/><path d="m224 146v9.574a30 30 0 0 0 8.787 21.213 70.091 70.091 0 0 0 55.907 20.241l55.306-5.028 18.482-4.621a22.018 22.018 0 0 0 16.251-17.042 22.019 22.019 0 0 0 -21.591-26.337h-11.6a132.606 132.606 0 0 1 -49.255-9.486l-7-2.8a75.585 75.585 0 0 1 -17.287-9.714 30 30 0 0 0 -42 6 30 30 0 0 0 -6 18z" fill="#d15959"/><path d="m328 24h80v256h-80z" fill="#88d0ef"/><path d="m328 24a80 80 0 0 1 80 80v176a0 0 0 0 1 0 0h-80a0 0 0 0 1 0 0v-256a0 0 0 0 1 0 0z" fill="#a9e9ff"/><circle cx="280" cy="160" fill="#f6f6e7" r="16"/><rect fill="#d1e3ee" height="240" rx="19.701" width="360" x="32" y="248"/><path d="m380.294 249.706a19.593 19.593 0 0 1 1.706 8v200.594a19.7 19.7 0 0 1 -19.7 19.7h-320.6a19.593 19.593 0 0 1 -7.995-1.706 19.692 19.692 0 0 0 17.995 11.706h320.6a19.7 19.7 0 0 0 19.7-19.7v-200.6a19.693 19.693 0 0 0 -11.706-17.994z" fill="#a9bfd1"/><path d="m64 280h296v176h-296z" fill="#8da3b2"/><path d="m64 280h120a176 176 0 0 1 176 176 0 0 0 0 1 0 0h-296a0 0 0 0 1 0 0v-176a0 0 0 0 1 0 0z" fill="#a9bfd1"/><path d="m328 336a16 16 0 0 0 -16-16h-7.718a16.282 16.282 0 0 0 -16.282 16.282v15.718h-34v32h34v15.718a16.282 16.282 0 0 0 16.282 16.282h7.718a16 16 0 0 0 16-16 16 16 0 0 0 -16-16v-32a16 16 0 0 0 16-16z" fill="#f6f6e7"/><path d="m264 384a136.567 136.567 0 0 1 -96.568 40h-15.432a56 56 0 0 1 -56-56 56 56 0 0 1 56-56h15.432a136.567 136.567 0 0 1 96.568 40z" fill="#ffc5c5"/><path d="m167.432 394h-15.432a56.013 56.013 0 0 1 -53.952-41 56.018 56.018 0 0 0 -2.048 15 56 56 0 0 0 56 56h15.432a136.567 136.567 0 0 0 96.568-40v-30a136.567 136.567 0 0 1 -96.568 40z" fill="#ef8989"/><path d="m232 248h80v240h-80z" fill="#88d0ef"/><path d="m232 248a80 80 0 0 1 80 80v160a0 0 0 0 1 0 0h-80a0 0 0 0 1 0 0v-240a0 0 0 0 1 0 0z" fill="#a9e9ff"/><path d="m232.062 477.651h79.938v10.349h-79.938z" fill="#55abc9"/><path d="m468.3 16h-320.6a27.732 27.732 0 0 0 -27.7 27.7v196.3h-68.3a27.732 27.732 0 0 0 -27.7 27.7v200.6a27.732 27.732 0 0 0 27.7 27.7h320.6a27.732 27.732 0 0 0 27.7-27.7v-180.3h68.3a27.732 27.732 0 0 0 27.7-27.7v-216.6a27.732 27.732 0 0 0 -27.7-27.7zm-52.3 186.434a76.483 76.483 0 0 0 16-46.718v-16.4a35.261 35.261 0 0 0 -16-29.556v-45.76h32v176h-32zm-96 220.19a24 24 0 0 0 0-45.248v-18.752a24 24 0 0 0 0-45.248v-25.376h32v160h-32zm-16 57.376h-64v-224h64zm-80-77.125a129.041 129.041 0 0 1 -56.568 13.125h-15.432a48 48 0 0 1 0-96h15.432a129.072 129.072 0 0 1 56.568 13.122zm0-87.334a145.14 145.14 0 0 0 -56.568-11.541h-15.432a64 64 0 0 0 0 128h15.432a145.125 145.125 0 0 0 56.568-11.537v27.537h-152v-160h152zm-56-75.541v-176h152v39.524a46.387 46.387 0 0 1 -26.361-13.2 62.222 62.222 0 0 0 -44.265-18.324h-2.741a63 63 0 0 0 -44.789 18.853 62.288 62.288 0 0 0 -17.844 43.779v34.741a62.629 62.629 0 0 0 62.627 62.627h73.373v8zm120-80a8 8 0 1 1 -8-8 8.009 8.009 0 0 1 8 8zm-32 0a24 24 0 1 0 41.409-16.494 140.921 140.921 0 0 0 22.591 6.139v36.5l-32.031 2.912a61.929 61.929 0 0 1 -49.525-17.931 21.854 21.854 0 0 1 -6.444-15.552v-9.574a22 22 0 0 1 35.2-17.6 83.7 83.7 0 0 0 12.238 7.614 24.024 24.024 0 0 0 -23.438 23.986zm43.258-32.913-7-2.8a67.623 67.623 0 0 1 -15.458-8.687 38 38 0 0 0 -60.8 30.4v9.574a37.75 37.75 0 0 0 11.13 26.869 77.837 77.837 0 0 0 55.155 22.876c2.367 0 4.749-.107 7.133-.324l30.582-2.78v13.785h-73.373a46.628 46.628 0 0 1 -46.627-46.627v-34.741a46.377 46.377 0 0 1 13.29-32.6 46.9 46.9 0 0 1 33.343-14.032h2.741a46.323 46.323 0 0 1 32.956 13.643 62.265 62.265 0 0 0 37.67 18v13.7a124.727 124.727 0 0 1 -20.742-6.256zm-163.258-83.387a11.714 11.714 0 0 1 11.7-11.7h172.3v16h-160a8 8 0 0 0 -8 8v184h-16zm-96 424.6v-200.6a11.714 11.714 0 0 1 11.7-11.7h172.3v16h-160a8 8 0 0 0 -8 8v176a8 8 0 0 0 8 8h160v16h-172.3a11.714 11.714 0 0 1 -11.7-11.7zm344 0a11.714 11.714 0 0 1 -11.7 11.7h-52.3v-16h40a8 8 0 0 0 8-8v-176a8 8 0 0 0 -8-8h-40v-16h52.3a11.714 11.714 0 0 1 11.7 11.7zm-11.7-228.3h-36.3v-208h64v235.7a27.732 27.732 0 0 0 -27.7-27.7zm107.7 20.3a11.714 11.714 0 0 1 -11.7 11.7h-52.3v-16h40a8 8 0 0 0 8-8v-192a8 8 0 0 0 -8-8h-40v-16h52.3a11.714 11.714 0 0 1 11.7 11.7z"/></svg>