<svg id="Capa_1" enable-background="new 0 0 511.997 511.997" height="512" viewBox="0 0 511.997 511.997" width="512" xmlns="http://www.w3.org/2000/svg"><g><path d="m399.829 428.38v-8.427h-4.372c-5.677 0-10.278-4.602-10.278-10.278v-44.645c-4.957 0-9.177-3.608-9.948-8.505l-.803-5.106c-3.81-24.218-13.343-47.065-27.057-67.387-9.413-13.95-14.838-30.814-14.636-48.955.511-45.988 37.829-83.801 83.807-84.883.692-.016 1.382-.024 2.071-.024v-75.725c0-5.332-4.322-9.654-9.654-9.654h-250.08c-5.332 0-9.654 4.322-9.654 9.654v195.645h27.151c4.46 0 8.708-1.906 11.672-5.238 5.072-5.7 12.338-8.96 19.967-8.96h19.462c22.097-.347 42.447 14.275 48.427 36.592 7.057 26.337 34.95 141.778-9.902 153.796-26.731 7.163-49.449-30.404-64.938-67.506-3.954 3.757-9.3 6.062-15.185 6.062-12.179 0-22.052-9.873-22.052-22.052 0-2.88.552-5.631 1.557-8.153h-16.159v82.88c0 5.332 4.322 9.654 9.654 9.654h250.08c1.427 0 2.782-.31 4.001-.866-7.611-2.399-13.131-9.514-13.131-17.919z" fill="#617881"/><circle cx="112.572" cy="362.784" fill="#d0cee7" r="22.052"/><circle cx="185.879" cy="362.784" fill="#d0cee7" r="22.052"/><path d="m275.904 292.484c-5.98-22.317-26.33-36.939-48.427-36.592h-19.462c-7.63 0-14.895 3.26-19.967 8.96-2.965 3.332-7.212 5.238-11.672 5.238h-54.301c-4.46 0-8.708-1.906-11.672-5.238-5.072-5.7-12.338-8.96-19.967-8.96h-19.463c-22.097-.347-42.447 14.275-48.427 36.592-7.057 26.337-34.95 141.778 9.902 153.796 26.732 7.163 49.451-30.409 64.941-67.512-4.673-4.44-7.407-10.901-6.78-17.987.96-10.863 10.022-19.52 20.915-20.024 9.745-.451 18.172 5.429 21.536 13.874h32.331c3.364-8.446 11.792-14.326 21.537-13.874 10.893.505 19.955 9.162 20.915 20.025.626 7.086-2.108 13.547-6.78 17.987 15.49 37.103 38.208 74.675 64.941 67.512 44.851-12.019 16.957-127.46 9.9-153.797z" fill="#f9f6f9"/><path d="m504.497 236.053c0-48.121-39.576-86.998-87.954-85.859-45.978 1.082-83.297 38.895-83.807 84.883-.202 18.142 5.223 35.006 14.636 48.956 13.713 20.322 23.246 43.168 27.057 67.387l.803 5.106c.77 4.897 4.99 8.505 9.948 8.505h66.868c4.957 0 9.177-3.608 9.948-8.505l.553-3.512c3.921-24.923 13.659-48.454 27.63-69.462 9.046-13.605 14.318-29.936 14.318-47.499z" fill="#ffe07d"/><path d="m435.674 151.864c17.683 15.731 28.823 38.659 28.823 64.188 0 17.563-5.272 33.894-14.319 47.498-13.971 21.008-23.709 44.539-27.63 69.462l-.553 3.512c-.771 4.897-4.99 8.505-9.948 8.505h-38.763c.425 2.118.807 4.248 1.144 6.389l.803 5.106c.771 4.897 4.99 8.505 9.948 8.505h66.869c4.957 0 9.177-3.608 9.948-8.505l.553-3.512c3.921-24.923 13.659-48.454 27.63-69.462 9.047-13.604 14.319-29.935 14.319-47.498-.001-41.59-29.565-76.275-68.824-84.188z" fill="#ffd064"/><path d="m441.77 419.953h-46.312c-5.677 0-10.278-4.602-10.278-10.278v-44.645h66.868v44.645c0 5.676-4.602 10.278-10.278 10.278z" fill="#dddaec"/><path d="m418.614 447.165c-10.374 0-18.784-8.41-18.784-18.784v-8.427h37.569v8.427c-.001 10.374-8.411 18.784-18.785 18.784z" fill="#d0cee7"/><path d="m201.065 378.774c-3.954 3.757-9.3 6.062-15.185 6.062-3.379 0-6.58-.76-9.442-2.118v33.23c0 2.213 1.794 4.006 4.006 4.006h42.013c-8.115-11.976-15.311-26.614-21.392-41.18z" fill="#bed8fb"/><path d="m385.179 409.675v-44.645c-4.957 0-9.177-3.608-9.948-8.505l-.803-5.106c-3.81-24.218-13.343-47.065-27.057-67.387-9.413-13.95-14.838-30.814-14.636-48.955.413-37.227 24.946-69.096 58.666-80.462v-58.605c0-2.213-1.794-4.006-4.006-4.006h-206.951c-2.213 0-4.006 1.794-4.006 4.006v174.08c4.438-.018 8.66-1.921 11.611-5.238 5.072-5.7 12.338-8.96 19.967-8.96h19.462c22.097-.347 42.447 14.275 48.427 36.592 5.251 19.596 22.036 88.52 11.811 127.469h99.681c1.188 0 2.255-.517 2.988-1.338-3.109-1.768-5.206-5.109-5.206-8.94z" fill="#bed8fb"/><path d="m149.226 437.511v-82.88h-16.159c1.004 2.522 1.557 5.273 1.557 8.153 0 12.179-9.873 22.052-22.052 22.052-5.885 0-11.231-2.305-15.185-6.062-14.16 33.917-34.361 68.223-58.145 68.39h.095 108.854c2.312 0 4.553-.302 6.686-.867-3.335-1.521-5.651-4.883-5.651-8.786z" fill="#617881"/><path d="m154.876 446.297c-3.333-1.521-5.65-4.883-5.65-8.787v-82.88h-16.159c1.004 2.522 1.557 5.273 1.557 8.153 0 5.53-2.035 10.584-5.398 14.455v60.272c0 5.33 4.32 9.651 9.649 9.654h9.315c2.311.001 4.552-.301 6.686-.867z" fill="#475959"/><path d="m22.547 292.484c5.98-22.317 26.33-36.939 48.427-36.592h19.462c7.63 0 14.896 3.261 19.967 8.96 2.965 3.332 7.212 5.238 11.672 5.238h27.151v-106.574c-.344-.013-.689-.021-1.036-.021h-108.854c-14.379 0-26.036 11.657-26.036 26.036v144.384c3.298-18.249 7.172-33.69 9.247-41.431z" fill="#617881"/><path d="m149.226 163.516c-.344-.013-.689-.021-1.036-.021h-18.964v106.595h20z" fill="#475959"/><path d="m70.973 255.892h19.462c7.63 0 14.896 3.261 19.967 8.96 2.965 3.332 7.212 5.238 11.672 5.238h27.151v-78.402c0-1.763-1.429-3.192-3.192-3.192h-25.741c-.928 0-1.784.502-2.237 1.312l-1.527 2.729c-.453.81-1.309 1.312-2.237 1.312h-41.056c-.928 0-1.784-.502-2.237-1.312l-1.527-2.729c-.453-.81-1.309-1.312-2.237-1.312h-25.742c-1.763 0-3.192 1.429-3.192 3.192v75.92c8.982-7.602 20.565-11.906 32.673-11.716z" fill="#bed8fb"/><path d="m149.226 354.631h-16.159c1.004 2.522 1.557 5.273 1.557 8.153 0 12.179-9.873 22.052-22.052 22.052-5.885 0-11.231-2.305-15.185-6.062-6.461 15.476-14.18 31.033-22.923 43.391h71.57c1.763 0 3.192-1.429 3.192-3.192z" fill="#bed8fb"/><path d="m149.226 191.688c0-1.763-1.429-3.192-3.192-3.192h-16.808v81.594h20z" fill="#9dc6fb"/><path d="m129.226 422.165h16.808c1.763 0 3.192-1.429 3.192-3.192v-64.341h-16.159c1.004 2.522 1.557 5.273 1.557 8.153 0 5.53-2.035 10.584-5.398 14.455z" fill="#9dc6fb"/><circle cx="228.714" cy="286.745" r="7.5"/><circle cx="228.714" cy="323.778" r="7.5"/><circle cx="247.23" cy="305.261" r="7.5"/><circle cx="210.198" cy="305.261" r="7.5"/><path d="m51.718 312.761h11.016v11.017c0 4.143 3.358 7.5 7.5 7.5s7.5-3.357 7.5-7.5v-11.017h11.016c4.142 0 7.5-3.357 7.5-7.5s-3.358-7.5-7.5-7.5h-11.016v-11.016c0-4.143-3.358-7.5-7.5-7.5s-7.5 3.357-7.5 7.5v11.016h-11.016c-4.142 0-7.5 3.357-7.5 7.5s3.358 7.5 7.5 7.5z"/><path d="m123.65 322.1h11.601c4.142 0 7.5-3.357 7.5-7.5s-3.358-7.5-7.5-7.5h-11.601c-4.142 0-7.5 3.357-7.5 7.5s3.358 7.5 7.5 7.5z"/><path d="m163.2 322.1h11.601c4.142 0 7.5-3.357 7.5-7.5s-3.358-7.5-7.5-7.5h-11.601c-4.142 0-7.5 3.357-7.5 7.5s3.358 7.5 7.5 7.5z"/><circle cx="203.649" cy="119.215" r="7.5"/><path d="m499.485 206.11c-3.996 1.092-6.35 5.217-5.257 9.212 1.837 6.721 2.769 13.695 2.769 20.731 0 15.506-4.518 30.493-13.064 43.344-15.119 22.735-24.807 47.111-28.794 72.45l-.553 3.512c-.197 1.258-1.265 2.171-2.538 2.171h-25.935v-47.27c16.665-3.472 29.224-18.273 29.224-35.953 0-4.143-3.357-7.5-7.5-7.5s-7.5 3.357-7.5 7.5c0 11.979-9.745 21.724-21.724 21.724s-21.724-9.745-21.724-21.724c0-4.143-3.357-7.5-7.5-7.5s-7.5 3.357-7.5 7.5c0 17.68 12.559 32.481 29.224 35.953v47.27h-25.933c-1.273 0-2.342-.913-2.539-2.17l-.803-5.106c-3.888-24.708-13.392-48.399-28.249-70.416-8.914-13.209-13.531-28.658-13.354-44.678.463-41.734 34.773-76.486 76.484-77.468 24.272-.562 47.047 9.857 62.468 28.61 2.632 3.2 7.359 3.657 10.557 1.029 3.199-2.631 3.66-7.357 1.029-10.557-16.289-19.807-39.467-31.797-64.66-33.803v-68.526c0-9.458-7.695-17.153-17.153-17.153h-250.081c-9.458 0-17.154 7.695-17.154 17.153v30.522c0 4.143 3.358 7.5 7.5 7.5s7.5-3.357 7.5-7.5v-30.522c0-1.188.966-2.153 2.154-2.153h250.081c1.188 0 2.153.966 2.153 2.153v68.523c-4.129.33-8.207.932-12.212 1.798v-48.757c0-6.345-5.161-11.506-11.506-11.506h-206.951c-6.345 0-11.506 5.161-11.506 11.506v166.58h-12.212v-122.622c0-4.143-3.358-7.5-7.5-7.5s-7.5 3.357-7.5 7.5v16.028h-43.521c-4.142 0-7.5 3.357-7.5 7.5s3.358 7.5 7.5 7.5h43.521v10h-21.434c-3.639 0-7.004 1.973-8.782 5.149l-.114.204h-35.267l-.116-.208c-1.778-3.174-5.143-5.146-8.78-5.146h-25.741c-5.896 0-10.692 4.797-10.692 10.692v72.562c-3.9 3.753-7.279 8.078-10 12.871v-87.589c0-10.221 8.315-18.536 18.537-18.536h23.869c4.142 0 7.5-3.357 7.5-7.5s-3.358-7.5-7.5-7.5h-23.87c-18.492 0-33.537 15.044-33.537 33.536v143.647c-2.303 12.843-4.314 27.051-5.251 41.073-3.104 46.443 6.976 73.114 29.958 79.272 3.606.967 7.071 1.309 10.385 1.141h107.299c2.102 0 4.195-.196 6.249-.583 1.417.38 2.906.583 4.441.583h250.081c1.47 0 2.912-.183 4.31-.546 1.726.358 3.513.546 5.343.546 14.494 0 26.285-11.791 26.285-26.284v-1.204c8.316-1.482 14.649-8.767 14.649-17.502v-10.158c2.843-1.066 4.866-3.809 4.866-7.024s-2.023-5.958-4.866-7.024v-14.596c5.131-2.404 8.919-7.227 9.856-13.181l.553-3.512c3.648-23.188 12.553-45.554 26.466-66.476 10.188-15.319 15.574-33.18 15.574-51.65 0-8.372-1.11-16.678-3.3-24.687-1.092-3.995-5.224-6.345-9.212-5.255zm-57.715 206.343h-46.312c-1.532 0-2.778-1.246-2.778-2.778v-9.683h51.868v9.683c0 1.532-1.246 2.778-2.778 2.778zm-257.832 0v-20.181c4.64.303 9.351-.474 13.751-2.399 3.72 8.324 7.492 15.852 11.311 22.58zm1.941-35.118c-8.024 0-14.552-6.528-14.552-14.552 0-8.008 6.513-14.552 14.552-14.552 8.024 0 14.552 6.528 14.552 14.552 0 8.037-6.541 14.552-14.552 14.552zm-58.755-14.551c0 8.023-6.528 14.552-14.552 14.552-8.005 0-14.552-6.51-14.552-14.552 0-8.023 6.528-14.552 14.552-14.552s14.552 6.529 14.552 14.552zm-26.361 27.089c3.619 1.583 7.613 2.463 11.809 2.463 14.643 0 26.833-10.706 29.154-24.702v47.031h-53.55c4.256-7.278 8.453-15.543 12.587-24.792zm-22.482 39.792h63.445c.037 7.483-.092 8.201.135 10h-72.144c2.878-2.913 5.733-6.246 8.564-10zm80.598 10c-1.188 0-2.154-.966-2.154-2.153v-69.877c1.323 7.977 5.851 14.884 12.212 19.35v28.963c0 6.345 5.162 11.506 11.506 11.506h38.094c3.364 4.669 6.763 8.74 10.193 12.212h-69.851zm134.386-12.212h94.131c1.228 0 2.436-.197 3.581-.572.445.116.896.215 1.353.296v1.204c0 4.037.915 7.863 2.548 11.284h-107.635c2.388-3.48 4.396-7.552 6.022-12.212zm99.415-42.461v-12.462h51.868v12.462zm-8.779-285.489v49.871c-33.388 13.465-58.229 46.372-58.666 85.619-.211 19.08 5.294 37.488 15.92 53.234 13.619 20.182 22.321 41.835 25.864 64.356l.803 5.106c.937 5.954 4.726 10.777 9.857 13.181v14.596c-2.843 1.066-4.866 3.809-4.866 7.024s2.023 5.958 4.866 7.024v10.158c0 .945.074 1.873.217 2.778h-81.012c1.659-10.729 2.002-23.47 1.017-38.201-2.302-34.444-11.084-70.015-14.754-83.709-6.754-25.207-29.673-42.513-55.727-42.15h-19.406c-9.037 0-17.695 3.585-24.079 9.902v-158.789zm-338.101 96.493h18.539l.112.201c1.777 3.178 5.142 5.152 8.783 5.152h41.056c3.639 0 7.004-1.974 8.782-5.15l.114-.203h18.539v66.594h-19.65c-2.317 0-4.53-.992-6.07-2.723-6.488-7.292-15.808-11.475-25.57-11.475h-19.406c-8.87-.122-17.434 1.778-25.229 5.484zm-30.285 179.255c2.275-34.055 11.502-70.475 14.276-80.826 4.947-18.464 21.749-31.38 41.063-31.034.04.001.079.001.118.001h19.462c5.484 0 10.72 2.35 14.365 6.446 4.384 4.926 10.681 7.751 17.275 7.751h54.341c6.524 0 12.841-2.812 17.235-7.752 3.645-4.096 8.881-6.445 14.365-6.445h19.461c.04 0 .079 0 .118-.001 18.926-.331 36.03 12.245 41.064 31.034 2.773 10.352 12 46.774 14.275 80.826 1.402 20.979 1.424 58.345-18.874 63.784-22.027 5.902-42.823-32.518-54.27-58.906 3.546-4.875 5.639-10.87 5.639-17.345 0-16.295-13.257-29.552-29.552-29.552-10.55 0-19.827 5.557-25.056 13.898h-23.195c-5.23-8.341-14.506-13.898-25.056-13.898-16.295 0-29.552 13.257-29.552 29.552 0 6.475 2.094 12.471 5.639 17.345-11.446 26.389-32.237 64.807-54.27 58.906-18.783-5.034-20.63-37.464-18.871-63.784zm403.098 64.414c-6.222 0-11.284-5.062-11.284-11.284v-.928h22.569v.928c.001 6.221-5.062 11.284-11.285 11.284z"/></g></svg>