<svg id="Capa_1" enable-background="new 0 0 511.5 511.5" height="512" viewBox="0 0 511.5 511.5" width="512" xmlns="http://www.w3.org/2000/svg"><g><g><circle cx="390.571" cy="330.019" fill="#ffd064" r="108.588"/><path d="m420.491 434.43c-9.5 2.72-19.54 4.18-29.92 4.18-59.97 0-108.59-48.62-108.59-108.59s48.62-108.59 108.59-108.59c10.38 0 20.42 1.46 29.92 4.18-45.43 12.99-78.68 54.82-78.68 104.41s33.25 91.42 78.68 104.41z" fill="#ffc250"/><g><g><path d="" fill="#95d6a4"/><path d="m357.112 28.643c-15.757-15.756-118.231-21.143-170.239-21.143-52.007 0-154.482 5.387-170.239 21.143-9.06 9.06-2.118 26.114 5.42 38.974 7.306 12.464 10.455 26.939 9.263 41.337-8.26 99.777-8.306 199.554-.137 299.33 1.258 15.365 13.259 27.704 28.592 29.3 84.734 8.822 169.468 8.822 254.202 0 15.333-1.596 27.334-13.935 28.592-29.3 8.169-99.777 8.123-199.554-.137-299.33-1.192-14.398 1.957-28.873 9.263-41.338 7.537-12.859 14.48-29.913 5.42-38.973z" fill="#986b54"/></g><g><path d="m80.407 421.474c.36 6.94 2.03 13.31 4.64 18.48-8.43-.7-16.85-1.49-25.28-2.37-15.33-1.59-27.33-13.93-28.59-29.3-8.17-99.77-8.12-199.55.14-299.33 1.19-14.4-1.96-28.87-9.26-41.33-7.54-12.86-14.48-29.92-5.42-38.98 6.49-6.49 27.69-11.22 54.02-14.54-.06.09-.13.19-.19.29-6.2 9.72-1.45 28 3.7 41.79 5 13.37 7.15 28.89 6.34 44.33-5.65 106.98-5.68 213.97-.1 320.96z" fill="#845c47"/></g><path d="m311.862 225.851c0 63.54-55.96 115.05-124.99 115.05-44.79 0-84.08-21.7-106.14-54.29-1.56-2.3-3.04-4.66-4.42-7.08-9.22-16.02-14.43-34.3-14.43-53.68 0-20.31 5.72-39.39 15.76-55.95 1-1.66 2.05-3.3 3.14-4.91 22.07-32.55 61.34-54.19 106.09-54.19 69.03 0 124.99 51.5 124.99 115.05z" fill="#ececec"/><g><path d="m76.312 279.531c-9.22-16.02-14.43-34.3-14.43-53.68 0-20.31 5.72-39.39 15.76-55.95-1.11 36.54-1.55 73.09-1.33 109.63z" fill="#dadada"/></g><g fill="#407093"><g><circle cx="249.539" cy="206.835" r="14.595"/><circle cx="213.765" cy="170.243" r="14.595"/><circle cx="124.205" cy="206.835" r="14.595"/><circle cx="159.979" cy="170.243" r="14.595"/></g><path d="m217.413 223.864c-1.39-6.542-4.898-12.724-10.527-17.45-11.479-9.637-28.551-9.637-40.03 0-5.629 4.725-9.136 10.907-10.526 17.449-1.435 6.752-5.275 12.669-10.542 17.131-7.269 6.157-11.684 15.577-10.978 26.002 1.052 15.543 13.729 28.093 29.281 29.003 5.371.314 10.469-.731 14.983-2.822 4.922-2.28 10.671-2.28 15.594 0 4.515 2.091 9.612 3.136 14.983 2.822 15.552-.91 28.229-13.46 29.281-29.004.706-10.425-3.71-19.844-10.978-26.002-5.266-4.46-9.106-10.377-10.541-17.129z"/></g></g><path d="m459.564 429.51c9.223-7.736 15.091-19.341 15.091-32.32 0-23.29-18.88-42.171-42.171-42.171-23.29 0-42.171 18.88-42.171 42.171 0 1.218.068 2.42.17 3.612-36.658-.699-73.315-.699-109.973 0 .101-1.192.17-2.393.17-3.612 0-23.29-18.88-42.171-42.171-42.171-23.29 0-42.171 18.88-42.171 42.171 0 12.979 5.868 24.584 15.091 32.32-9.223 7.736-15.091 19.34-15.091 32.32 0 23.29 18.88 42.171 42.171 42.171 23.29 0 42.171-18.88 42.171-42.171 0-1.218-.068-2.42-.17-3.612 36.658.699 73.315.699 109.973 0-.101 1.192-.17 2.393-.17 3.612 0 23.29 18.88 42.171 42.171 42.171 23.29 0 42.171-18.88 42.171-42.171 0-12.98-5.868-24.585-15.091-32.32z" fill="#ececec"/><path d="m474.655 461.83c0 23.29-18.88 42.17-42.17 42.17s-42.17-18.88-42.17-42.17c0-1.22.07-2.42.17-3.61-36.66.7-73.32.7-109.97 0 .1 1.19.17 2.39.17 3.61 0 23.29-18.88 42.17-42.17 42.17s-42.18-18.88-42.18-42.17c0-3 .31-5.92.91-8.74 4.03 10.96 20.98 19.19 41.27 19.19 23.29 0 42.17-10.84 42.17-24.21 0-.7-.07-1.39-.17-2.08 36.65.41 73.31.41 109.97 0-.1.69-.17 1.38-.17 2.08 0 13.37 18.88 24.21 42.17 24.21 20.29 0 37.24-8.23 41.26-19.19.6 2.82.91 5.74.91 8.74z" fill="#dadada"/></g><g><path d="m186.858 348.404c73.054 0 132.487-54.977 132.487-122.553s-59.434-122.553-132.487-122.553-132.486 54.977-132.486 122.553c0 67.576 59.433 122.553 132.486 122.553zm0-230.106c64.783 0 117.487 48.248 117.487 107.553s-52.705 107.553-117.487 107.553-117.486-48.248-117.486-107.553 52.704-107.553 117.486-107.553z"/><path d="m227.429 206.835c0 12.183 9.912 22.095 22.096 22.095 12.183 0 22.095-9.912 22.095-22.095s-9.912-22.095-22.095-22.095c-12.184 0-22.096 9.912-22.096 22.095zm22.095-7.095c3.912 0 7.095 3.183 7.095 7.095s-3.183 7.095-7.095 7.095c-3.913 0-7.096-3.183-7.096-7.095s3.184-7.095 7.096-7.095z"/><path d="m213.75 192.338c12.183 0 22.095-9.912 22.095-22.095s-9.912-22.095-22.095-22.095-22.095 9.912-22.095 22.095 9.912 22.095 22.095 22.095zm0-29.191c3.912 0 7.095 3.183 7.095 7.095s-3.183 7.095-7.095 7.095-7.095-3.183-7.095-7.095 3.183-7.095 7.095-7.095z"/><path d="m124.19 228.93c12.184 0 22.096-9.912 22.096-22.095s-9.912-22.095-22.096-22.095c-12.183 0-22.095 9.912-22.095 22.095s9.912 22.095 22.095 22.095zm0-29.19c3.913 0 7.096 3.183 7.096 7.095s-3.183 7.095-7.096 7.095c-3.912 0-7.095-3.183-7.095-7.095s3.183-7.095 7.095-7.095z"/><path d="m159.964 192.338c12.183 0 22.095-9.912 22.095-22.095s-9.912-22.095-22.095-22.095-22.095 9.912-22.095 22.095 9.912 22.095 22.095 22.095zm0-29.191c3.912 0 7.095 3.183 7.095 7.095s-3.183 7.095-7.095 7.095-7.095-3.183-7.095-7.095 3.183-7.095 7.095-7.095z"/><path d="m148.98 222.304c-1.042 4.903-3.827 9.387-8.054 12.968-9.494 8.042-14.456 19.79-13.614 32.231 1.312 19.379 16.929 34.849 36.326 35.984 6.397.372 12.818-.837 18.574-3.504 2.908-1.347 6.381-1.347 9.289 0 5.074 2.351 10.665 3.57 16.299 3.57.758 0 1.518-.022 2.276-.066 19.397-1.136 35.013-16.606 36.325-35.985.842-12.441-4.12-24.189-13.613-32.23-4.227-3.581-7.012-8.065-8.053-12.967-1.809-8.511-6.318-15.992-13.041-21.635-14.161-11.887-35.515-11.887-49.675 0-6.722 5.644-11.23 13.125-13.039 21.634zm22.684-10.146c8.661-7.271 21.724-7.271 30.385 0 4.136 3.471 6.906 8.058 8.012 13.264 1.739 8.182 6.244 15.546 13.03 21.295 5.819 4.929 8.86 12.136 8.343 19.772-.803 11.86-10.362 21.328-22.236 22.023-3.986.233-7.823-.486-11.393-2.14-3.479-1.612-7.214-2.417-10.949-2.417s-7.471.806-10.95 2.417c-3.569 1.654-7.404 2.375-11.392 2.14-11.874-.695-21.433-10.163-22.236-22.022-.517-7.637 2.524-14.844 8.343-19.773 6.786-5.748 11.292-13.112 13.031-21.295 1.107-5.205 3.877-9.792 8.012-13.264z"/><path d="m481.954 401.534c15.929-20.323 24.695-45.606 24.695-71.514 0-64.012-52.078-116.09-116.09-116.09-11.967 0-23.659 1.798-34.891 5.342-.808-37.081-2.731-74.112-5.78-110.945-1.09-13.084 1.765-25.848 8.257-36.914 8.823-15.049 16.724-35.606 4.252-48.079-5.346-5.342-19.051-13.086-76.103-18.636-35.612-3.464-74.717-4.698-99.439-4.698s-63.827 1.234-99.44 4.699c-57.052 5.55-70.756 13.294-76.104 18.638-12.471 12.47-4.57 33.027 4.254 48.079 6.491 11.064 9.346 23.828 8.255 36.909-.423 5.058-.842 10.443-1.316 16.949-.302 4.131 2.803 7.725 6.934 8.026 4.132.303 7.725-2.803 8.026-6.934.471-6.451.885-11.787 1.304-16.792 1.349-16.182-2.201-32.002-10.264-45.747-.41-.7-.794-1.385-1.176-2.069 22.706-9.561 96.856-15.796 159.528-15.796 23.854 0 61.707 1.176 96.404 4.475 38.318 3.644 55.458 8.173 63.1 11.359-.375.671-.751 1.343-1.154 2.03-8.064 13.746-11.615 29.565-10.267 45.744 7.776 93.938 8.185 189.179 1.261 283.212-16.092-.004-32.187.123-48.197.385-2.055-25.514-23.475-45.646-49.509-45.646-27.388 0-49.67 22.282-49.67 49.67 0 11.966 4.284 23.376 11.959 32.32-1.92 2.237-3.627 4.628-5.108 7.144-44.862.329-90.309-1.861-135.148-6.534-11.723-1.215-20.928-10.656-21.888-22.453-6.838-83.447-7.887-168.097-3.118-251.6.236-4.135-2.925-7.679-7.06-7.916-4.134-.234-7.679 2.925-7.916 7.06-4.809 84.194-3.751 169.544 3.143 253.675 1.544 18.989 16.387 34.193 35.288 36.152 42.42 4.421 85.374 6.655 127.896 6.654 1.003 0 2.004-.014 3.007-.017-.689 3.309-1.056 6.706-1.056 10.153 0 27.388 22.282 49.67 49.67 49.67 26.034 0 47.454-20.131 49.509-45.646 31.545.518 63.415.518 94.952 0 2.055 25.514 23.476 45.646 49.51 45.646 7.992 0 15.946-1.947 23.001-5.632 3.672-1.917 5.094-6.448 3.177-10.12-1.919-3.672-6.45-5.095-10.12-3.176-4.991 2.606-10.394 3.928-16.058 3.928-19.117 0-34.671-15.553-34.671-34.67 0-.868.046-1.814.145-2.978.179-2.116-.548-4.209-2-5.759s-3.492-2.412-5.617-2.371c-36.386.695-73.29.695-109.684 0-2.113-.04-4.164.821-5.617 2.371-1.452 1.55-2.179 3.643-2 5.759.098 1.156.144 2.103.144 2.978 0 19.117-15.553 34.67-34.67 34.67s-34.67-15.553-34.67-34.67c0-10.267 4.524-19.954 12.413-26.576 1.697-1.425 2.678-3.528 2.678-5.744s-.98-4.319-2.678-5.744c-7.889-6.622-12.413-16.308-12.413-26.576 0-19.117 15.553-34.67 34.67-34.67s34.67 15.553 34.67 34.67c0 .875-.046 1.822-.144 2.978-.179 2.116.548 4.209 2 5.759 1.453 1.55 3.502 2.417 5.617 2.371 36.393-.694 73.297-.694 109.684 0 2.127.046 4.165-.821 5.617-2.371s2.179-3.643 2-5.759c-.099-1.164-.145-2.11-.145-2.978 0-19.117 15.554-34.67 34.671-34.67 19.122 0 34.68 15.553 34.68 34.67 0 10.27-4.526 19.955-12.42 26.573-1.699 1.425-2.681 3.529-2.681 5.747s.981 4.322 2.681 5.747c7.894 6.618 12.42 16.304 12.42 26.573 0 4.378-.804 8.643-2.39 12.675-1.517 3.855.38 8.208 4.234 9.725 3.855 1.516 8.209-.38 9.725-4.234 2.276-5.788 3.431-11.899 3.431-18.165 0-11.968-4.286-23.378-11.965-32.32 6.745-7.852 10.87-17.61 11.775-27.976zm-295.097-370.573c-1.357 0-125.144.216-165.59 17.227-2.066-6.662-1.918-11.675.65-14.243 2.029-2.028 12.854-9.054 66.951-14.317 35.079-3.412 73.618-4.628 97.987-4.628s62.908 1.216 97.987 4.628c54.097 5.263 64.922 12.289 66.949 14.315 2.57 2.57 2.719 7.582.653 14.244-40.447-17.009-164.229-17.226-165.587-17.226zm245.609 316.559c-26.034 0-47.455 20.131-49.51 45.646-10.543-.173-21.127-.266-31.72-.324 3.827-52.383 5.407-105.133 4.709-157.829 11.055-4.038 22.675-6.083 34.614-6.083 55.741 0 101.09 45.349 101.09 101.09 0 17.316-4.493 34.315-12.85 49.283-7.197-18.573-25.246-31.783-46.333-31.783z"/></g></g></svg>